M48
; DRILL file {KiCad 9.0.4} date 2025-11-01T20:04:55+0100
; FORMAT={-:-/ absolute / metric / decimal}
; #@! TF.CreationDate,2025-11-01T20:04:55+01:00
; #@! TF.GenerationSoftware,Kicad,Pcbnew,9.0.4
; #@! TF.FileFunction,Plated,1,4,PTH
FMAT,2
METRIC
; #@! TA.AperFunction,Plated,PTH,ViaDrill
T1C0.300
; #@! TA.AperFunction,Plated,PTH,ViaDrill
T2C0.400
; #@! TA.AperFunction,Plated,PTH,ComponentDrill
T3C0.750
; #@! TA.AperFunction,Plated,PTH,ComponentDrill
T4C0.800
; #@! TA.AperFunction,Plated,PTH,ComponentDrill
T5C0.900
; #@! TA.AperFunction,Plated,PTH,ComponentDrill
T6C1.000
; #@! TA.AperFunction,Plated,PTH,ComponentDrill
T7C1.100
; #@! TA.AperFunction,Plated,PTH,ComponentDrill
T8C1.500
; #@! TA.AperFunction,Plated,PTH,ComponentDrill
T9C2.200
; #@! TA.AperFunction,Plated,PTH,ComponentDrill
T10C3.200
%
G90
G05
T1
X68.584Y76.38
X70.108Y86.032
X93.476Y32.692
X99.572Y78.412
X105.16Y32.692
X108.208Y53.52
X110.24Y65.204
X127.512Y64.188
X131.576Y32.692
X135.64Y32.692
X155.96Y59.616
T2
X35.056Y85.016
X35.056Y84.016
X35.056Y83.016
X35.056Y72.792
X35.056Y71.792
X35.056Y70.792
X35.088Y98.7
X35.088Y97.7
X35.088Y96.7
X36.056Y85.016
X36.056Y84.016
X36.056Y83.016
X36.056Y72.792
X36.056Y71.792
X36.056Y70.792
X36.088Y98.7
X36.088Y97.7
X36.088Y96.7
X37.056Y85.016
X37.056Y84.016
X37.056Y83.016
X37.056Y72.792
X37.056Y71.792
X37.056Y70.792
X37.088Y98.7
X37.088Y97.7
X37.088Y96.7
X78.4Y93.1
X82.0Y57.5
X91.4Y65.9
X121.924Y58.092
X121.924Y57.092
X122.924Y58.092
X122.924Y57.092
X134.75Y72.75
X143.75Y86.25
X193.584Y83.46
X193.584Y82.46
X193.584Y81.46
X194.584Y83.46
X194.584Y82.46
X194.584Y81.46
X195.584Y83.46
X195.584Y82.46
X195.584Y81.46
X239.304Y64.664
X239.304Y63.664
X239.304Y62.664
X240.304Y64.664
X240.304Y63.664
X240.304Y62.664
X241.304Y64.664
X241.304Y63.664
X241.304Y62.664
T3
X112.19Y61.33
X113.46Y61.33
X114.73Y61.33
X120.63Y61.4
X121.9Y61.4
X123.17Y61.4
X135.69Y89.24
X136.96Y89.24
X138.23Y89.24
T4
X11.29Y87.954
X11.29Y85.414
X11.29Y82.874
X21.32Y98.574
X21.32Y90.954
X21.396Y87.224
X21.396Y79.604
X27.076Y87.224
X27.076Y79.604
X53.38Y73.43
X53.38Y65.81
X57.3Y88.88
X57.3Y81.26
X57.43Y73.43
X57.43Y65.81
X59.922Y34.784
X61.35Y88.88
X61.35Y81.26
X61.48Y73.43
X61.48Y65.81
X62.462Y34.784
X65.002Y34.784
X65.4Y88.88
X65.4Y81.26
X67.35Y65.34
X69.35Y65.34
X75.77Y76.18
X75.77Y73.64
X75.77Y71.1
X75.77Y68.56
X76.0Y90.5
X76.0Y82.88
X76.95Y61.51
X81.95Y61.51
X82.86Y82.95
X83.39Y76.18
X83.39Y73.64
X83.39Y71.1
X83.39Y68.56
X89.07Y61.97
X89.07Y56.97
X90.48Y82.95
X91.41Y74.11
X91.41Y69.11
X95.36Y57.01
X95.37Y61.35
X96.052Y35.114
X96.89Y82.995
X96.89Y80.995
X98.592Y35.114
X101.132Y35.114
X101.16Y74.36
X101.16Y66.74
X102.98Y57.01
X102.99Y61.35
X108.7Y83.12
X108.7Y79.07
X108.7Y75.02
X108.83Y68.45
X116.32Y83.12
X116.32Y79.07
X116.32Y75.02
X116.45Y68.45
X124.04Y96.41
X130.06Y56.96
X131.66Y96.41
X137.16Y96.5
X137.172Y34.794
X137.68Y56.96
X137.88Y72.76
X137.88Y67.76
X137.91Y83.19
X137.91Y78.19
X139.712Y34.794
X142.252Y34.794
X144.78Y96.5
X145.87Y78.01
X145.87Y75.47
X145.87Y72.93
X145.87Y70.39
X145.93Y62.96
X146.57Y56.81
X147.04Y86.24
X151.57Y56.81
X152.04Y86.24
X153.49Y78.01
X153.49Y75.47
X153.49Y72.93
X153.49Y70.39
X153.55Y62.96
X159.34Y67.11
X159.34Y59.49
X162.19Y96.61
X162.19Y88.99
X162.29Y83.76
X162.29Y79.71
X162.29Y75.66
X164.81Y66.96
X164.81Y59.34
X169.91Y83.76
X169.91Y79.71
X169.91Y75.66
X189.03Y76.06
X196.65Y76.06
X197.08Y65.97
X201.24Y86.92
X201.24Y81.92
X204.7Y65.97
X209.877Y81.862
X209.877Y79.322
X209.877Y76.782
X209.877Y74.242
X210.41Y59.86
X210.72Y65.97
X211.11Y90.47
X215.72Y65.97
X216.11Y90.47
X217.498Y81.862
X217.498Y79.322
X217.498Y76.782
X217.498Y74.242
X218.03Y59.86
X224.89Y66.2
X224.89Y61.2
X228.07Y74.06
X231.57Y74.06
T5
X28.708Y94.47
X28.708Y91.93
X75.83Y98.33
X78.37Y98.33
T6
X25.488Y67.018
X25.488Y62.018
X60.132Y27.074
X62.632Y27.074
X65.132Y27.074
X89.04Y99.791
X89.04Y89.791
X95.763Y27.674
X98.263Y27.674
X100.763Y27.674
X136.435Y27.574
X138.935Y27.574
X141.435Y27.574
X189.38Y67.98
X189.38Y57.98
X210.62Y26.67
X213.12Y26.67
X215.62Y26.67
T7
X7.931Y51.742
X7.931Y49.202
X243.38Y74.76
X243.38Y72.22
T8
X36.0Y91.75
X36.0Y79.75
X36.0Y67.5
X86.0Y27.5
T9
X58.232Y20.074
X67.032Y20.074
X93.863Y20.674
X102.663Y20.674
X134.535Y20.574
X143.335Y20.574
X208.72Y19.67
X217.52Y19.67
T10
X4.0Y115.5
X4.0Y4.02
X245.94Y115.5
X245.94Y4.02
T6
G00X8.828Y66.08
M15
G01X8.828Y64.08
M16
G05
G00X10.828Y60.38
M15
G01X12.828Y60.38
M16
G05
G00X14.828Y66.08
M15
G01X14.828Y64.08
M16
G05
M30
