%TF.GenerationSoftware,KiCad,Pcbnew,9.0.4*%
%TF.CreationDate,2025-11-01T20:04:13+01:00*%
%TF.ProjectId,AlienScreamer_Prototype_V1,416c6965-6e53-4637-9265-616d65725f50,rev?*%
%TF.SameCoordinates,Original*%
%TF.FileFunction,Other,User*%
%FSLAX46Y46*%
G04 Gerber Fmt 4.6, Leading zero omitted, Abs format (unit mm)*
G04 Created by KiCad (PCBNEW 9.0.4) date 2025-11-01 20:04:13*
%MOMM*%
%LPD*%
G01*
G04 APERTURE LIST*
%ADD10C,0.050000*%
G04 APERTURE END LIST*
D10*
%TO.C,H3*%
X280940000Y-32000000D02*
G75*
G02*
X274940000Y-32000000I-3000000J0D01*
G01*
X274940000Y-32000000D02*
G75*
G02*
X280940000Y-32000000I3000000J0D01*
G01*
%TO.C,C7*%
X62738000Y-82982323D02*
G75*
G02*
X52238000Y-82982323I-5250000J0D01*
G01*
X52238000Y-82982323D02*
G75*
G02*
X62738000Y-82982323I5250000J0D01*
G01*
%TO.C,R21*%
X192840000Y-79340000D02*
X189840000Y-79340000D01*
X189840000Y-89060000D01*
X192840000Y-89060000D01*
X192840000Y-79340000D01*
%TO.C,C3*%
X131640000Y-65504888D02*
G75*
G02*
X126140000Y-65504888I-2750000J0D01*
G01*
X126140000Y-65504888D02*
G75*
G02*
X131640000Y-65504888I2750000J0D01*
G01*
%TO.C,R12*%
X149370000Y-65880000D02*
X139650000Y-65880000D01*
X139650000Y-62880000D01*
X149370000Y-62880000D01*
X149370000Y-65880000D01*
%TO.C,D3*%
X57498000Y-51080000D02*
X57498000Y-57510000D01*
X57498000Y-57510000D02*
X63918000Y-57510000D01*
X63918000Y-51080000D02*
X57498000Y-51080000D01*
X63918000Y-57510000D02*
X63918000Y-51080000D01*
%TO.C,J2*%
X36331500Y-93758000D02*
X36331500Y-100298000D01*
X36331500Y-100298000D02*
X43531500Y-100298000D01*
X43531500Y-93758000D02*
X36331500Y-93758000D01*
X43531500Y-100298000D02*
X43531500Y-93758000D01*
%TO.C,R9*%
X131660000Y-81810000D02*
X134660000Y-81810000D01*
X134660000Y-72090000D01*
X131660000Y-72090000D01*
X131660000Y-81810000D01*
%TO.C,R22*%
X202960000Y-73340000D02*
X193240000Y-73340000D01*
X193240000Y-70340000D01*
X202960000Y-70340000D01*
X202960000Y-73340000D01*
%TO.C,C8*%
X218630000Y-91270000D02*
X224130000Y-91270000D01*
X224130000Y-77770000D01*
X218630000Y-77770000D01*
X218630000Y-91270000D01*
%TO.C,C10*%
X230790000Y-67080000D02*
X235690000Y-67080000D01*
X235690000Y-59080000D01*
X230790000Y-59080000D01*
X230790000Y-67080000D01*
%TO.C,VNEG1*%
X70000000Y-55750000D02*
G75*
G02*
X66000000Y-55750000I-2000000J0D01*
G01*
X66000000Y-55750000D02*
G75*
G02*
X70000000Y-55750000I2000000J0D01*
G01*
%TO.C,R29*%
X251080000Y-89140000D02*
X241360000Y-89140000D01*
X241360000Y-86140000D01*
X251080000Y-86140000D01*
X251080000Y-89140000D01*
%TO.C,R8*%
X113810000Y-63050000D02*
X123530000Y-63050000D01*
X123530000Y-66050000D01*
X113810000Y-66050000D01*
X113810000Y-63050000D01*
%TO.C,C11*%
X249610000Y-59480000D02*
X241610000Y-59480000D01*
X241610000Y-54580000D01*
X249610000Y-54580000D01*
X249610000Y-59480000D01*
%TO.C,C13*%
X266070000Y-73440000D02*
G75*
G02*
X257570000Y-73440000I-4250000J0D01*
G01*
X257570000Y-73440000D02*
G75*
G02*
X266070000Y-73440000I4250000J0D01*
G01*
%TO.C,VPOS1*%
X70000000Y-80000000D02*
G75*
G02*
X66000000Y-80000000I-2000000J0D01*
G01*
X66000000Y-80000000D02*
G75*
G02*
X70000000Y-80000000I2000000J0D01*
G01*
%TO.C,Q3*%
X166230000Y-55530000D02*
X166230000Y-60270000D01*
X166230000Y-55530000D02*
X171690000Y-55530000D01*
X171690000Y-60270000D02*
X166230000Y-60270000D01*
X171690000Y-60270000D02*
X171690000Y-55530000D01*
%TO.C,RV4*%
X251980000Y-119680000D02*
X238260000Y-119680000D01*
X238260000Y-134080000D01*
X251980000Y-134080000D01*
X251980000Y-119680000D01*
%TO.C,C14*%
X124910000Y-72040000D02*
X121910000Y-72040000D01*
X121910000Y-79740000D01*
X124910000Y-79740000D01*
X124910000Y-72040000D01*
%TO.C,SW1*%
X41790000Y-67336000D02*
X44790000Y-67336000D01*
X44790000Y-56836000D01*
X41790000Y-56836000D01*
X41790000Y-67336000D01*
%TO.C,Q2*%
X151170000Y-83370000D02*
X151170000Y-88110000D01*
X151170000Y-83370000D02*
X156630000Y-83370000D01*
X156630000Y-88110000D02*
X151170000Y-88110000D01*
X156630000Y-88110000D02*
X156630000Y-83370000D01*
%TO.C,R20*%
X195310000Y-89210000D02*
X198310000Y-89210000D01*
X198310000Y-79490000D01*
X195310000Y-79490000D01*
X195310000Y-89210000D01*
%TO.C,R5*%
X91850000Y-67290000D02*
X94850000Y-67290000D01*
X94850000Y-57570000D01*
X91850000Y-57570000D01*
X91850000Y-67290000D01*
%TO.C,R19*%
X176880000Y-83040000D02*
X186600000Y-83040000D01*
X186600000Y-86040000D01*
X176880000Y-86040000D01*
X176880000Y-83040000D01*
%TO.C,R2*%
X87930000Y-82740000D02*
X90930000Y-82740000D01*
X90930000Y-73020000D01*
X87930000Y-73020000D01*
X87930000Y-82740000D01*
%TO.C,RV1*%
X101492000Y-119275944D02*
X87772000Y-119275944D01*
X87772000Y-133675944D01*
X101492000Y-133675944D01*
X101492000Y-119275944D01*
%TO.C,C15*%
X115300000Y-87490000D02*
X107600000Y-87490000D01*
X107600000Y-84490000D01*
X115300000Y-84490000D01*
X115300000Y-87490000D01*
%TO.C,R6*%
X95900000Y-67290000D02*
X98900000Y-67290000D01*
X98900000Y-57570000D01*
X95900000Y-57570000D01*
X95900000Y-67290000D01*
%TO.C,R14*%
X126320000Y-84650000D02*
X136040000Y-84650000D01*
X136040000Y-87650000D01*
X126320000Y-87650000D01*
X126320000Y-84650000D01*
%TO.C,LFO1*%
X120000000Y-120000000D02*
G75*
G02*
X116000000Y-120000000I-2000000J0D01*
G01*
X116000000Y-120000000D02*
G75*
G02*
X120000000Y-120000000I2000000J0D01*
G01*
%TO.C,J3*%
X271780000Y-70740000D02*
X271780000Y-77280000D01*
X271780000Y-77280000D02*
X278980000Y-77280000D01*
X278980000Y-70740000D02*
X271780000Y-70740000D01*
X278980000Y-77280000D02*
X278980000Y-70740000D01*
%TO.C,R28*%
X228030000Y-80030000D02*
X237750000Y-80030000D01*
X237750000Y-83030000D01*
X228030000Y-83030000D01*
X228030000Y-80030000D01*
%TO.C,GND1*%
X70000000Y-67750000D02*
G75*
G02*
X66000000Y-67750000I-2000000J0D01*
G01*
X66000000Y-67750000D02*
G75*
G02*
X70000000Y-67750000I2000000J0D01*
G01*
%TO.C,C16*%
X185390000Y-62760000D02*
X177690000Y-62760000D01*
X177690000Y-59760000D01*
X185390000Y-59760000D01*
X185390000Y-62760000D01*
%TO.C,U1*%
X106250000Y-69740000D02*
X116910000Y-69740000D01*
X116910000Y-80520000D01*
X106250000Y-80520000D01*
X106250000Y-69740000D01*
%TO.C,C5*%
X171410000Y-62960000D02*
X168410000Y-62960000D01*
X168410000Y-70660000D01*
X171410000Y-70660000D01*
X171410000Y-62960000D01*
%TO.C,R18*%
X168110000Y-49500000D02*
X177830000Y-49500000D01*
X177830000Y-52500000D01*
X168110000Y-52500000D01*
X168110000Y-49500000D01*
%TO.C,C1*%
X103100000Y-82160000D02*
G75*
G02*
X97600000Y-82160000I-2750000J0D01*
G01*
X97600000Y-82160000D02*
G75*
G02*
X103100000Y-82160000I2750000J0D01*
G01*
%TO.C,D2*%
X195440000Y-49840000D02*
X192940000Y-49840000D01*
X192940000Y-59560000D01*
X195440000Y-59560000D01*
X195440000Y-49840000D01*
%TO.C,J1*%
X32828000Y-87170000D02*
X32828000Y-77670000D01*
X41828000Y-87170000D02*
X32828000Y-87170000D01*
X41828000Y-89170000D02*
X41828000Y-87170000D01*
X45828000Y-87170000D02*
X45828000Y-89170000D01*
X45828000Y-89170000D02*
X41828000Y-89170000D01*
X47828000Y-77670000D02*
X32828000Y-77670000D01*
X47828000Y-77920000D02*
X47828000Y-77670000D01*
X47828000Y-77920000D02*
X47828000Y-80420000D01*
X47828000Y-80420000D02*
X48828000Y-80420000D01*
X47828000Y-84420000D02*
X47828000Y-87170000D01*
X47828000Y-87170000D02*
X45828000Y-87170000D01*
X48828000Y-80420000D02*
X48828000Y-84420000D01*
X48828000Y-84420000D02*
X47828000Y-84420000D01*
%TO.C,R15*%
X126310000Y-88990000D02*
X136030000Y-88990000D01*
X136030000Y-91990000D01*
X126310000Y-91990000D01*
X126310000Y-88990000D01*
%TO.C,R30*%
X51820000Y-57596000D02*
X54820000Y-57596000D01*
X54820000Y-47876000D01*
X51820000Y-47876000D01*
X51820000Y-57596000D01*
%TO.C,C6*%
X184920000Y-92190000D02*
X177220000Y-92190000D01*
X177220000Y-89190000D01*
X184920000Y-89190000D01*
X184920000Y-92190000D01*
%TO.C,R23*%
X202960000Y-69290000D02*
X193240000Y-69290000D01*
X193240000Y-66290000D01*
X202960000Y-66290000D01*
X202960000Y-69290000D01*
%TO.C,R27*%
X219980000Y-69940000D02*
X229700000Y-69940000D01*
X229700000Y-72940000D01*
X219980000Y-72940000D01*
X219980000Y-69940000D01*
%TO.C,RV2*%
X137123333Y-118675944D02*
X123403333Y-118675944D01*
X123403333Y-133075944D01*
X137123333Y-133075944D01*
X137123333Y-118675944D01*
%TO.C,C2*%
X123790000Y-45958628D02*
X118290000Y-45958628D01*
X118290000Y-59458628D01*
X123790000Y-59458628D01*
X123790000Y-45958628D01*
%TO.C,R25*%
X51895677Y-68946000D02*
X54895677Y-68946000D01*
X54895677Y-59226000D01*
X51895677Y-59226000D01*
X51895677Y-68946000D01*
%TO.C,R24*%
X202960000Y-65240000D02*
X193240000Y-65240000D01*
X193240000Y-62240000D01*
X202960000Y-62240000D01*
X202960000Y-65240000D01*
%TO.C,R16*%
X161010000Y-89040000D02*
X170730000Y-89040000D01*
X170730000Y-92040000D01*
X161010000Y-92040000D01*
X161010000Y-89040000D01*
%TO.C,C9*%
X249070000Y-83030000D02*
X241370000Y-83030000D01*
X241370000Y-80030000D01*
X249070000Y-80030000D01*
X249070000Y-83030000D01*
%TO.C,U2*%
X176350000Y-67910000D02*
X187010000Y-67910000D01*
X187010000Y-78690000D01*
X176350000Y-78690000D01*
X176350000Y-67910000D01*
%TO.C,D1*%
X105880000Y-45960000D02*
X105880000Y-52380000D01*
X105880000Y-52380000D02*
X112310000Y-52380000D01*
X112310000Y-45960000D02*
X105880000Y-45960000D01*
X112310000Y-52380000D02*
X112310000Y-45960000D01*
%TO.C,R4*%
X87800000Y-67290000D02*
X90800000Y-67290000D01*
X90800000Y-57570000D01*
X87800000Y-57570000D01*
X87800000Y-67290000D01*
%TO.C,H1*%
X39000000Y-32000000D02*
G75*
G02*
X33000000Y-32000000I-3000000J0D01*
G01*
X33000000Y-32000000D02*
G75*
G02*
X39000000Y-32000000I3000000J0D01*
G01*
%TO.C,Q1*%
X142730000Y-83440000D02*
X142730000Y-88180000D01*
X142730000Y-83440000D02*
X148190000Y-83440000D01*
X148190000Y-88180000D02*
X142730000Y-88180000D01*
X148190000Y-88180000D02*
X148190000Y-83440000D01*
%TO.C,C12*%
X258390000Y-80050000D02*
X255390000Y-80050000D01*
X255390000Y-87550000D01*
X258390000Y-87550000D01*
X258390000Y-80050000D01*
%TO.C,R3*%
X91980000Y-82740000D02*
X94980000Y-82740000D01*
X94980000Y-73020000D01*
X91980000Y-73020000D01*
X91980000Y-82740000D01*
%TO.C,R1*%
X83880000Y-82740000D02*
X86880000Y-82740000D01*
X86880000Y-73020000D01*
X83880000Y-73020000D01*
X83880000Y-82740000D01*
%TO.C,C4*%
X122570000Y-84480000D02*
X119570000Y-84480000D01*
X119570000Y-91580000D01*
X122570000Y-91580000D01*
X122570000Y-84480000D01*
%TO.C,RV3*%
X177794667Y-118775944D02*
X164074667Y-118775944D01*
X164074667Y-133175944D01*
X177794667Y-133175944D01*
X177794667Y-118775944D01*
%TO.C,U3*%
X240357500Y-64057500D02*
X251017500Y-64057500D01*
X251017500Y-74837500D01*
X240357500Y-74837500D01*
X240357500Y-64057500D01*
%TO.C,R10*%
X149370000Y-73980000D02*
X139650000Y-73980000D01*
X139650000Y-70980000D01*
X149370000Y-70980000D01*
X149370000Y-73980000D01*
%TO.C,R11*%
X149370000Y-69930000D02*
X139650000Y-69930000D01*
X139650000Y-66930000D01*
X149370000Y-66930000D01*
X149370000Y-69930000D01*
%TO.C,R7*%
X109500000Y-55950000D02*
X106500000Y-55950000D01*
X106500000Y-65670000D01*
X109500000Y-65670000D01*
X109500000Y-55950000D01*
%TO.C,SW4*%
X166462000Y-111205944D02*
X176962000Y-111205944D01*
X176962000Y-114205944D01*
X166462000Y-114205944D01*
X166462000Y-111205944D01*
%TO.C,R26*%
X57576000Y-68946000D02*
X60576000Y-68946000D01*
X60576000Y-59226000D01*
X57576000Y-59226000D01*
X57576000Y-68946000D01*
%TO.C,SW3*%
X125342000Y-110885944D02*
X135842000Y-110885944D01*
X135842000Y-113885944D01*
X125342000Y-113885944D01*
X125342000Y-110885944D01*
%TO.C,SW2*%
X89212000Y-111215944D02*
X99712000Y-111215944D01*
X99712000Y-114215944D01*
X89212000Y-114215944D01*
X89212000Y-111215944D01*
%TO.C,R17*%
X154990000Y-49590000D02*
X164710000Y-49590000D01*
X164710000Y-52590000D01*
X154990000Y-52590000D01*
X154990000Y-49590000D01*
%TO.C,H4*%
X280940000Y-143480000D02*
G75*
G02*
X274940000Y-143480000I-3000000J0D01*
G01*
X274940000Y-143480000D02*
G75*
G02*
X280940000Y-143480000I3000000J0D01*
G01*
%TO.C,R13*%
X149500000Y-80550000D02*
X139780000Y-80550000D01*
X139780000Y-77550000D01*
X149500000Y-77550000D01*
X149500000Y-80550000D01*
%TO.C,H2*%
X39000000Y-143480000D02*
G75*
G02*
X33000000Y-143480000I-3000000J0D01*
G01*
X33000000Y-143480000D02*
G75*
G02*
X39000000Y-143480000I3000000J0D01*
G01*
%TO.C,C17*%
X171380000Y-73390000D02*
X168380000Y-73390000D01*
X168380000Y-81090000D01*
X171380000Y-81090000D01*
X171380000Y-73390000D01*
%TD*%
M02*
