%TF.GenerationSoftware,KiCad,Pcbnew,9.0.4*%
%TF.CreationDate,2025-11-01T20:04:12+01:00*%
%TF.ProjectId,AlienScreamer_Prototype_V1,416c6965-6e53-4637-9265-616d65725f50,rev?*%
%TF.SameCoordinates,Original*%
%TF.FileFunction,Copper,L4,Bot*%
%TF.FilePolarity,Positive*%
%FSLAX46Y46*%
G04 Gerber Fmt 4.6, Leading zero omitted, Abs format (unit mm)*
G04 Created by KiCad (PCBNEW 9.0.4) date 2025-11-01 20:04:12*
%MOMM*%
%LPD*%
G01*
G04 APERTURE LIST*
G04 Aperture macros list*
%AMRoundRect*
0 Rectangle with rounded corners*
0 $1 Rounding radius*
0 $2 $3 $4 $5 $6 $7 $8 $9 X,Y pos of 4 corners*
0 Add a 4 corners polygon primitive as box body*
4,1,4,$2,$3,$4,$5,$6,$7,$8,$9,$2,$3,0*
0 Add four circle primitives for the rounded corners*
1,1,$1+$1,$2,$3*
1,1,$1+$1,$4,$5*
1,1,$1+$1,$6,$7*
1,1,$1+$1,$8,$9*
0 Add four rect primitives between the rounded corners*
20,1,$1+$1,$2,$3,$4,$5,0*
20,1,$1+$1,$4,$5,$6,$7,0*
20,1,$1+$1,$6,$7,$8,$9,0*
20,1,$1+$1,$8,$9,$2,$3,0*%
G04 Aperture macros list end*
%TA.AperFunction,ComponentPad*%
%ADD10C,3.600000*%
%TD*%
%TA.AperFunction,ConnectorPad*%
%ADD11C,5.500000*%
%TD*%
%TA.AperFunction,ComponentPad*%
%ADD12RoundRect,0.250000X-0.750000X0.750000X-0.750000X-0.750000X0.750000X-0.750000X0.750000X0.750000X0*%
%TD*%
%TA.AperFunction,ComponentPad*%
%ADD13C,2.000000*%
%TD*%
%TA.AperFunction,ComponentPad*%
%ADD14C,1.600000*%
%TD*%
%TA.AperFunction,ComponentPad*%
%ADD15RoundRect,0.250000X-0.550000X0.550000X-0.550000X-0.550000X0.550000X-0.550000X0.550000X0.550000X0*%
%TD*%
%TA.AperFunction,ComponentPad*%
%ADD16R,1.800000X1.800000*%
%TD*%
%TA.AperFunction,ComponentPad*%
%ADD17C,1.800000*%
%TD*%
%TA.AperFunction,ComponentPad*%
%ADD18RoundRect,0.249999X-0.850001X0.850001X-0.850001X-0.850001X0.850001X-0.850001X0.850001X0.850001X0*%
%TD*%
%TA.AperFunction,ComponentPad*%
%ADD19C,2.200000*%
%TD*%
%TA.AperFunction,ComponentPad*%
%ADD20C,3.000000*%
%TD*%
%TA.AperFunction,ComponentPad*%
%ADD21RoundRect,0.250000X-0.550000X-0.550000X0.550000X-0.550000X0.550000X0.550000X-0.550000X0.550000X0*%
%TD*%
%TA.AperFunction,ComponentPad*%
%ADD22R,1.050000X1.500000*%
%TD*%
%TA.AperFunction,ComponentPad*%
%ADD23O,1.050000X1.500000*%
%TD*%
%TA.AperFunction,ComponentPad*%
%ADD24C,4.400000*%
%TD*%
%TA.AperFunction,ComponentPad*%
%ADD25R,1.500000X1.500000*%
%TD*%
%TA.AperFunction,ComponentPad*%
%ADD26RoundRect,0.249999X0.850001X-0.850001X0.850001X0.850001X-0.850001X0.850001X-0.850001X-0.850001X0*%
%TD*%
%TA.AperFunction,ComponentPad*%
%ADD27RoundRect,0.250000X-0.950000X-0.550000X0.950000X-0.550000X0.950000X0.550000X-0.950000X0.550000X0*%
%TD*%
%TA.AperFunction,ComponentPad*%
%ADD28O,2.400000X1.600000*%
%TD*%
%TA.AperFunction,ComponentPad*%
%ADD29R,3.500000X3.500000*%
%TD*%
%TA.AperFunction,ComponentPad*%
%ADD30RoundRect,0.750000X-0.750000X-1.000000X0.750000X-1.000000X0.750000X1.000000X-0.750000X1.000000X0*%
%TD*%
%TA.AperFunction,ComponentPad*%
%ADD31RoundRect,0.875000X-0.875000X-0.875000X0.875000X-0.875000X0.875000X0.875000X-0.875000X0.875000X0*%
%TD*%
%TA.AperFunction,ViaPad*%
%ADD32C,0.600000*%
%TD*%
%TA.AperFunction,ViaPad*%
%ADD33C,0.800000*%
%TD*%
%TA.AperFunction,Conductor*%
%ADD34C,0.200000*%
%TD*%
%TA.AperFunction,Conductor*%
%ADD35C,0.600000*%
%TD*%
%TA.AperFunction,Conductor*%
%ADD36C,1.000000*%
%TD*%
G04 APERTURE END LIST*
D10*
%TO.P,H3,1,1*%
%TO.N,GND*%
X277940000Y-32000000D03*
D11*
X277940000Y-32000000D03*
%TD*%
D12*
%TO.P,C7,1*%
%TO.N,VPOS*%
X57488000Y-80482323D03*
D13*
%TO.P,C7,2*%
%TO.N,VNEG*%
X57488000Y-85482323D03*
%TD*%
D14*
%TO.P,R21,1*%
%TO.N,Net-(U2B--)*%
X191340000Y-80390000D03*
%TO.P,R21,2*%
%TO.N,VNEG*%
X191340000Y-88010000D03*
%TD*%
D15*
%TO.P,C3,1*%
%TO.N,Net-(SW3-C)*%
X128890000Y-64504888D03*
D14*
%TO.P,C3,2*%
%TO.N,VNEG*%
X128890000Y-66504888D03*
%TD*%
%TO.P,R12,1*%
%TO.N,GND*%
X148320000Y-64380000D03*
%TO.P,R12,2*%
%TO.N,Net-(R11-Pad1)*%
X140700000Y-64380000D03*
%TD*%
D16*
%TO.P,D3,1,K*%
%TO.N,VNEG*%
X60708000Y-55570000D03*
D17*
%TO.P,D3,2,A*%
%TO.N,Net-(D3-A)*%
X60708000Y-53030000D03*
%TD*%
D18*
%TO.P,J2,1,Pin_1*%
%TO.N,/VPOS_Main*%
X39931500Y-95758000D03*
D19*
%TO.P,J2,2,Pin_2*%
%TO.N,VNEG*%
X39931500Y-98298000D03*
%TD*%
D14*
%TO.P,R9,1*%
%TO.N,Net-(R9-Pad1)*%
X133160000Y-80760000D03*
%TO.P,R9,2*%
%TO.N,Net-(Q1-B)*%
X133160000Y-73140000D03*
%TD*%
%TO.P,R22,1*%
%TO.N,Net-(U2B-+)*%
X201910000Y-71840000D03*
%TO.P,R22,2*%
%TO.N,Net-(R22-Pad2)*%
X194290000Y-71840000D03*
%TD*%
D13*
%TO.P,C8,1*%
%TO.N,Net-(C8-Pad1)*%
X221380000Y-89520000D03*
%TO.P,C8,2*%
%TO.N,Net-(C8-Pad2)*%
X221380000Y-79520000D03*
%TD*%
D14*
%TO.P,C10,1*%
%TO.N,Net-(C10-Pad1)*%
X233240000Y-65580000D03*
%TO.P,C10,2*%
%TO.N,Net-(C10-Pad2)*%
X233240000Y-60580000D03*
%TD*%
D20*
%TO.P,VNEG1,1,1*%
%TO.N,VNEG*%
X68000000Y-55750000D03*
%TD*%
D14*
%TO.P,R29,1*%
%TO.N,Net-(C12-Pad2)*%
X250030000Y-87640000D03*
%TO.P,R29,2*%
%TO.N,VNEG*%
X242410000Y-87640000D03*
%TD*%
%TO.P,R8,1*%
%TO.N,Net-(SW2-A)*%
X114860000Y-64550000D03*
%TO.P,R8,2*%
%TO.N,Net-(SW3-C)*%
X122480000Y-64550000D03*
%TD*%
%TO.P,C11,1*%
%TO.N,Net-(U3-BYPASS)*%
X248110000Y-57030000D03*
%TO.P,C11,2*%
%TO.N,VNEG*%
X243110000Y-57030000D03*
%TD*%
D21*
%TO.P,C13,1*%
%TO.N,Net-(C12-Pad1)*%
X260070000Y-73440000D03*
D14*
%TO.P,C13,2*%
%TO.N,Net-(J3-Pin_2)*%
X263570000Y-73440000D03*
%TD*%
D20*
%TO.P,VPOS1,1,1*%
%TO.N,VPOS*%
X68000000Y-80000000D03*
%TD*%
D22*
%TO.P,Q3,1,D*%
%TO.N,Net-(Q2-C)*%
X167690000Y-58260000D03*
D23*
%TO.P,Q3,2,G*%
%TO.N,Net-(Q3-G)*%
X168960000Y-58260000D03*
%TO.P,Q3,3,S*%
%TO.N,/VCO_OUT*%
X170230000Y-58260000D03*
%TD*%
D17*
%TO.P,RV4,1,1*%
%TO.N,/VCO_OUT*%
X242620000Y-120830000D03*
%TO.P,RV4,2,2*%
%TO.N,Net-(C8-Pad1)*%
X245120000Y-120830000D03*
%TO.P,RV4,3,3*%
%TO.N,VNEG*%
X247620000Y-120830000D03*
D24*
%TO.P,RV4,MP*%
%TO.N,N/C*%
X249520000Y-127830000D03*
X240720000Y-127830000D03*
%TD*%
D14*
%TO.P,C14,1*%
%TO.N,VPOS*%
X123410000Y-73390000D03*
%TO.P,C14,2*%
%TO.N,GND*%
X123410000Y-78390000D03*
%TD*%
D25*
%TO.P,SW1,1,A*%
%TO.N,VPOS*%
X43290000Y-62086000D03*
D14*
%TO.P,SW1,2,B*%
%TO.N,/VPOS_Main*%
X43290000Y-64626000D03*
%TO.P,SW1,3,C*%
%TO.N,unconnected-(SW1-C-Pad3)*%
X43290000Y-59546000D03*
%TD*%
D22*
%TO.P,Q2,1,E*%
%TO.N,Net-(Q1-E)*%
X152630000Y-86100000D03*
D23*
%TO.P,Q2,2,B*%
%TO.N,GND*%
X153900000Y-86100000D03*
%TO.P,Q2,3,C*%
%TO.N,Net-(Q2-C)*%
X155170000Y-86100000D03*
%TD*%
D14*
%TO.P,R20,1*%
%TO.N,Net-(U2B--)*%
X196810000Y-88160000D03*
%TO.P,R20,2*%
%TO.N,VPOS*%
X196810000Y-80540000D03*
%TD*%
%TO.P,R5,1*%
%TO.N,VNEG*%
X93350000Y-66240000D03*
%TO.P,R5,2*%
%TO.N,Net-(U1A-+)*%
X93350000Y-58620000D03*
%TD*%
%TO.P,R19,1*%
%TO.N,/VCO_OUT*%
X177930000Y-84540000D03*
%TO.P,R19,2*%
%TO.N,Net-(U2B-+)*%
X185550000Y-84540000D03*
%TD*%
%TO.P,R2,1*%
%TO.N,Net-(R2-Pad1)*%
X89430000Y-81690000D03*
%TO.P,R2,2*%
%TO.N,Net-(R1-Pad1)*%
X89430000Y-74070000D03*
%TD*%
D17*
%TO.P,RV1,1,1*%
%TO.N,Net-(U1A--)*%
X92132000Y-120425944D03*
%TO.P,RV1,2,2*%
%TO.N,Net-(SW2-A)*%
X94632000Y-120425944D03*
%TO.P,RV1,3,3*%
X97132000Y-120425944D03*
D24*
%TO.P,RV1,MP*%
%TO.N,N/C*%
X99032000Y-127425944D03*
X90232000Y-127425944D03*
%TD*%
D14*
%TO.P,C15,1*%
%TO.N,GND*%
X113950000Y-85990000D03*
%TO.P,C15,2*%
%TO.N,VNEG*%
X108950000Y-85990000D03*
%TD*%
%TO.P,R6,1*%
%TO.N,Net-(U1A-+)*%
X97400000Y-66240000D03*
%TO.P,R6,2*%
%TO.N,Net-(SW2-A)*%
X97400000Y-58620000D03*
%TD*%
%TO.P,R14,1*%
%TO.N,Net-(C4-Pad1)*%
X127370000Y-86150000D03*
%TO.P,R14,2*%
%TO.N,Net-(Q1-E)*%
X134990000Y-86150000D03*
%TD*%
D20*
%TO.P,LFO1,1,1*%
%TO.N,Net-(SW3-B)*%
X118000000Y-120000000D03*
%TD*%
D26*
%TO.P,J3,1,Pin_1*%
%TO.N,VNEG*%
X275380000Y-75280000D03*
D19*
%TO.P,J3,2,Pin_2*%
%TO.N,Net-(J3-Pin_2)*%
X275380000Y-72740000D03*
%TD*%
D14*
%TO.P,R28,1*%
%TO.N,Net-(U3-+)*%
X229080000Y-81530000D03*
%TO.P,R28,2*%
%TO.N,VNEG*%
X236700000Y-81530000D03*
%TD*%
D20*
%TO.P,GND1,1,1*%
%TO.N,GND*%
X68000000Y-67750000D03*
%TD*%
D14*
%TO.P,C16,1*%
%TO.N,VPOS*%
X184040000Y-61260000D03*
%TO.P,C16,2*%
%TO.N,GND*%
X179040000Y-61260000D03*
%TD*%
D27*
%TO.P,U1,1*%
%TO.N,Net-(SW2-A)*%
X107770000Y-71320000D03*
D28*
%TO.P,U1,2,-*%
%TO.N,Net-(U1A--)*%
X107770000Y-73860000D03*
%TO.P,U1,3,+*%
%TO.N,Net-(U1A-+)*%
X107770000Y-76400000D03*
%TO.P,U1,4,V-*%
%TO.N,VNEG*%
X107770000Y-78940000D03*
%TO.P,U1,5,+*%
%TO.N,GND*%
X115390000Y-78940000D03*
%TO.P,U1,6,-*%
%TO.N,Net-(Q1-C)*%
X115390000Y-76400000D03*
%TO.P,U1,7*%
%TO.N,Net-(C4-Pad1)*%
X115390000Y-73860000D03*
%TO.P,U1,8,V+*%
%TO.N,VPOS*%
X115390000Y-71320000D03*
%TD*%
D14*
%TO.P,C5,1*%
%TO.N,/VCO_OUT*%
X169910000Y-64310000D03*
%TO.P,C5,2*%
%TO.N,Net-(Q2-C)*%
X169910000Y-69310000D03*
%TD*%
%TO.P,R18,1*%
%TO.N,Net-(Q3-G)*%
X169160000Y-51000000D03*
%TO.P,R18,2*%
%TO.N,Net-(D2-K)*%
X176780000Y-51000000D03*
%TD*%
D21*
%TO.P,C1,1*%
%TO.N,Net-(C1-Pad1)*%
X99350000Y-82160000D03*
D14*
%TO.P,C1,2*%
%TO.N,VNEG*%
X101350000Y-82160000D03*
%TD*%
D15*
%TO.P,D2,1,K*%
%TO.N,Net-(D2-K)*%
X194190000Y-50890000D03*
D14*
%TO.P,D2,2,A*%
%TO.N,Net-(D2-A)*%
X194190000Y-58510000D03*
%TD*%
D29*
%TO.P,J1,1*%
%TO.N,/VPOS_Main*%
X46828000Y-82420000D03*
D30*
%TO.P,J1,2*%
%TO.N,VNEG*%
X40828000Y-82420000D03*
D31*
%TO.P,J1,3*%
%TO.N,N/C*%
X43828000Y-87120000D03*
%TD*%
D14*
%TO.P,R15,1*%
%TO.N,VPOS*%
X127360000Y-90490000D03*
%TO.P,R15,2*%
%TO.N,Net-(Q1-C)*%
X134980000Y-90490000D03*
%TD*%
%TO.P,R30,1*%
%TO.N,VPOS*%
X53320000Y-56546000D03*
%TO.P,R30,2*%
%TO.N,Net-(D3-A)*%
X53320000Y-48926000D03*
%TD*%
%TO.P,C6,1*%
%TO.N,Net-(U2B--)*%
X183570000Y-90690000D03*
%TO.P,C6,2*%
%TO.N,Net-(SW4-B)*%
X178570000Y-90690000D03*
%TD*%
%TO.P,R23,1*%
%TO.N,Net-(R23-Pad1)*%
X201910000Y-67790000D03*
%TO.P,R23,2*%
%TO.N,Net-(R22-Pad2)*%
X194290000Y-67790000D03*
%TD*%
%TO.P,R27,1*%
%TO.N,Net-(C8-Pad2)*%
X221030000Y-71440000D03*
%TO.P,R27,2*%
%TO.N,Net-(U3-+)*%
X228650000Y-71440000D03*
%TD*%
D17*
%TO.P,RV2,1,1*%
%TO.N,Net-(SW3-B)*%
X127763333Y-119825944D03*
%TO.P,RV2,2,2*%
%TO.N,Net-(R9-Pad1)*%
X130263333Y-119825944D03*
%TO.P,RV2,3,3*%
%TO.N,VPOS*%
X132763333Y-119825944D03*
D24*
%TO.P,RV2,MP*%
%TO.N,N/C*%
X134663333Y-126825944D03*
X125863333Y-126825944D03*
%TD*%
D13*
%TO.P,C2,1*%
%TO.N,Net-(SW2-B)*%
X121040000Y-47708628D03*
%TO.P,C2,2*%
%TO.N,Net-(SW2-A)*%
X121040000Y-57708628D03*
%TD*%
D14*
%TO.P,R25,1*%
%TO.N,VPOS*%
X53395677Y-67896000D03*
%TO.P,R25,2*%
%TO.N,GND*%
X53395677Y-60276000D03*
%TD*%
%TO.P,R24,1*%
%TO.N,Net-(R23-Pad1)*%
X201910000Y-63740000D03*
%TO.P,R24,2*%
%TO.N,Net-(D2-A)*%
X194290000Y-63740000D03*
%TD*%
%TO.P,R16,1*%
%TO.N,VNEG*%
X162060000Y-90540000D03*
%TO.P,R16,2*%
%TO.N,Net-(SW4-B)*%
X169680000Y-90540000D03*
%TD*%
%TO.P,C9,1*%
%TO.N,VPOS*%
X247720000Y-81530000D03*
%TO.P,C9,2*%
%TO.N,VNEG*%
X242720000Y-81530000D03*
%TD*%
D27*
%TO.P,U2,1*%
%TO.N,/VCO_OUT*%
X177870000Y-69490000D03*
D28*
%TO.P,U2,2,-*%
%TO.N,Net-(Q2-C)*%
X177870000Y-72030000D03*
%TO.P,U2,3,+*%
%TO.N,GND*%
X177870000Y-74570000D03*
%TO.P,U2,4,V-*%
%TO.N,VNEG*%
X177870000Y-77110000D03*
%TO.P,U2,5,+*%
%TO.N,Net-(U2B-+)*%
X185490000Y-77110000D03*
%TO.P,U2,6,-*%
%TO.N,Net-(U2B--)*%
X185490000Y-74570000D03*
%TO.P,U2,7*%
%TO.N,Net-(D2-A)*%
X185490000Y-72030000D03*
%TO.P,U2,8,V+*%
%TO.N,VPOS*%
X185490000Y-69490000D03*
%TD*%
D16*
%TO.P,D1,1,K*%
%TO.N,VNEG*%
X110370000Y-49170000D03*
D17*
%TO.P,D1,2,A*%
%TO.N,Net-(D1-A)*%
X107830000Y-49170000D03*
%TD*%
D14*
%TO.P,R4,1*%
%TO.N,VPOS*%
X89300000Y-66240000D03*
%TO.P,R4,2*%
%TO.N,Net-(U1A-+)*%
X89300000Y-58620000D03*
%TD*%
D10*
%TO.P,H1,1,1*%
%TO.N,GND*%
X36000000Y-32000000D03*
D11*
X36000000Y-32000000D03*
%TD*%
D22*
%TO.P,Q1,1,E*%
%TO.N,Net-(Q1-E)*%
X144190000Y-86170000D03*
D23*
%TO.P,Q1,2,B*%
%TO.N,Net-(Q1-B)*%
X145460000Y-86170000D03*
%TO.P,Q1,3,C*%
%TO.N,Net-(Q1-C)*%
X146730000Y-86170000D03*
%TD*%
D14*
%TO.P,C12,1*%
%TO.N,Net-(C12-Pad1)*%
X256890000Y-81300000D03*
%TO.P,C12,2*%
%TO.N,Net-(C12-Pad2)*%
X256890000Y-86300000D03*
%TD*%
%TO.P,R3,1*%
%TO.N,Net-(C1-Pad1)*%
X93480000Y-81690000D03*
%TO.P,R3,2*%
%TO.N,Net-(R2-Pad1)*%
X93480000Y-74070000D03*
%TD*%
%TO.P,R1,1*%
%TO.N,Net-(R1-Pad1)*%
X85380000Y-81690000D03*
%TO.P,R1,2*%
%TO.N,Net-(U1A--)*%
X85380000Y-74070000D03*
%TD*%
%TO.P,C4,1*%
%TO.N,Net-(C4-Pad1)*%
X121070000Y-85530000D03*
%TO.P,C4,2*%
%TO.N,Net-(Q1-C)*%
X121070000Y-90530000D03*
%TD*%
D17*
%TO.P,RV3,1,1*%
%TO.N,VPOS*%
X168434667Y-119925944D03*
%TO.P,RV3,2,2*%
%TO.N,Net-(R10-Pad1)*%
X170934667Y-119925944D03*
%TO.P,RV3,3,3*%
%TO.N,VNEG*%
X173434667Y-119925944D03*
D24*
%TO.P,RV3,MP*%
%TO.N,N/C*%
X175334667Y-126925944D03*
X166534667Y-126925944D03*
%TD*%
D27*
%TO.P,U3,1,GAIN*%
%TO.N,Net-(C10-Pad1)*%
X241877500Y-65637500D03*
D28*
%TO.P,U3,2,-*%
%TO.N,VNEG*%
X241877500Y-68177500D03*
%TO.P,U3,3,+*%
%TO.N,Net-(U3-+)*%
X241877500Y-70717500D03*
%TO.P,U3,4,GND*%
%TO.N,VNEG*%
X241877500Y-73257500D03*
%TO.P,U3,5*%
%TO.N,Net-(C12-Pad1)*%
X249497500Y-73257500D03*
%TO.P,U3,6,V+*%
%TO.N,VPOS*%
X249497500Y-70717500D03*
%TO.P,U3,7,BYPASS*%
%TO.N,Net-(U3-BYPASS)*%
X249497500Y-68177500D03*
%TO.P,U3,8,GAIN*%
%TO.N,Net-(C10-Pad2)*%
X249497500Y-65637500D03*
%TD*%
D14*
%TO.P,R10,1*%
%TO.N,Net-(R10-Pad1)*%
X148320000Y-72480000D03*
%TO.P,R10,2*%
%TO.N,Net-(Q1-B)*%
X140700000Y-72480000D03*
%TD*%
%TO.P,R11,1*%
%TO.N,Net-(R11-Pad1)*%
X148320000Y-68430000D03*
%TO.P,R11,2*%
%TO.N,Net-(Q1-B)*%
X140700000Y-68430000D03*
%TD*%
%TO.P,R7,1*%
%TO.N,Net-(D1-A)*%
X108000000Y-57000000D03*
%TO.P,R7,2*%
%TO.N,Net-(SW2-A)*%
X108000000Y-64620000D03*
%TD*%
D25*
%TO.P,SW4,1,A*%
%TO.N,Net-(SW2-A)*%
X171712000Y-112705944D03*
D14*
%TO.P,SW4,2,B*%
%TO.N,Net-(SW4-B)*%
X169172000Y-112705944D03*
%TO.P,SW4,3,C*%
%TO.N,unconnected-(SW4-C-Pad3)*%
X174252000Y-112705944D03*
%TD*%
%TO.P,R26,1*%
%TO.N,GND*%
X59076000Y-67896000D03*
%TO.P,R26,2*%
%TO.N,VNEG*%
X59076000Y-60276000D03*
%TD*%
D25*
%TO.P,SW3,1,A*%
%TO.N,Net-(SW2-B)*%
X130592000Y-112385944D03*
D14*
%TO.P,SW3,2,B*%
%TO.N,Net-(SW3-B)*%
X128052000Y-112385944D03*
%TO.P,SW3,3,C*%
%TO.N,Net-(SW3-C)*%
X133132000Y-112385944D03*
%TD*%
D25*
%TO.P,SW2,1,A*%
%TO.N,Net-(SW2-A)*%
X94462000Y-112715944D03*
D14*
%TO.P,SW2,2,B*%
%TO.N,Net-(SW2-B)*%
X91922000Y-112715944D03*
%TO.P,SW2,3,C*%
%TO.N,unconnected-(SW2-C-Pad3)*%
X97002000Y-112715944D03*
%TD*%
%TO.P,R17,1*%
%TO.N,VNEG*%
X156040000Y-51090000D03*
%TO.P,R17,2*%
%TO.N,Net-(Q3-G)*%
X163660000Y-51090000D03*
%TD*%
D10*
%TO.P,H4,1,1*%
%TO.N,GND*%
X277940000Y-143480000D03*
D11*
X277940000Y-143480000D03*
%TD*%
D14*
%TO.P,R13,1*%
%TO.N,VNEG*%
X148450000Y-79050000D03*
%TO.P,R13,2*%
%TO.N,Net-(Q1-B)*%
X140830000Y-79050000D03*
%TD*%
D10*
%TO.P,H2,1,1*%
%TO.N,GND*%
X36000000Y-143480000D03*
D11*
X36000000Y-143480000D03*
%TD*%
D14*
%TO.P,C17,1*%
%TO.N,GND*%
X169880000Y-74740000D03*
%TO.P,C17,2*%
%TO.N,VNEG*%
X169880000Y-79740000D03*
%TD*%
D32*
%TO.N,Net-(Q1-C)*%
X140208000Y-93980000D03*
%TO.N,Net-(U2B--)*%
X187960000Y-87884000D03*
D33*
%TO.N,VPOS*%
X69056000Y-76708000D03*
X67056000Y-74708000D03*
X68056000Y-75708000D03*
X69056000Y-75708000D03*
X68056000Y-74708000D03*
X68056000Y-76708000D03*
X69056000Y-74708000D03*
X67056000Y-75708000D03*
X67056000Y-76708000D03*
%TO.N,VNEG*%
X68088000Y-48800000D03*
X68088000Y-49800000D03*
X272304000Y-84836000D03*
X272304000Y-82836000D03*
X226584000Y-64040000D03*
X110400000Y-54400000D03*
X225584000Y-66040000D03*
X226584000Y-66040000D03*
X271304000Y-84836000D03*
X69088000Y-48800000D03*
X67088000Y-50800000D03*
X273304000Y-84836000D03*
X271304000Y-82836000D03*
X226584000Y-65040000D03*
X67088000Y-48800000D03*
X271304000Y-83836000D03*
X69088000Y-50800000D03*
X272304000Y-83836000D03*
X69088000Y-49800000D03*
X68088000Y-50800000D03*
X67088000Y-49800000D03*
X273304000Y-83836000D03*
X273304000Y-82836000D03*
X225584000Y-65040000D03*
X227584000Y-64040000D03*
X227584000Y-66040000D03*
X227584000Y-65040000D03*
X225584000Y-64040000D03*
%TO.N,GND*%
X68056000Y-62484000D03*
X114000000Y-90000000D03*
X154924000Y-90408000D03*
X68056000Y-63484000D03*
X153924000Y-90408000D03*
X154924000Y-89408000D03*
X67056000Y-64484000D03*
X123400000Y-81600000D03*
X69056000Y-64484000D03*
X69056000Y-63484000D03*
X69056000Y-62484000D03*
X67056000Y-63484000D03*
X175750000Y-61250000D03*
X67056000Y-62484000D03*
X68056000Y-64484000D03*
X166750000Y-74750000D03*
X153924000Y-89408000D03*
D32*
%TO.N,Net-(Q1-E)*%
X142240000Y-82296000D03*
%TO.N,Net-(U1A-+)*%
X100584000Y-71120000D03*
%TO.N,Net-(R10-Pad1)*%
X159512000Y-83312000D03*
%TO.N,Net-(SW2-A)*%
X125476000Y-114808000D03*
X102108000Y-61468000D03*
X163576000Y-114808000D03*
X167640000Y-114808000D03*
X137160000Y-114808000D03*
%TO.N,Net-(SW3-C)*%
X131572000Y-69088000D03*
%TD*%
D34*
%TO.N,Net-(C1-Pad1)*%
X93480000Y-81690000D02*
X98880000Y-81690000D01*
X98880000Y-81690000D02*
X99350000Y-82160000D01*
%TO.N,Net-(C4-Pad1)*%
X119200000Y-83660000D02*
X119200000Y-75200000D01*
X117860000Y-73860000D02*
X115390000Y-73860000D01*
X121690000Y-86150000D02*
X121070000Y-85530000D01*
X121070000Y-85530000D02*
X119200000Y-83660000D01*
X119200000Y-75200000D02*
X117860000Y-73860000D01*
X127370000Y-86150000D02*
X121690000Y-86150000D01*
%TO.N,Net-(Q1-C)*%
X121070000Y-90530000D02*
X118364000Y-87824000D01*
X112776000Y-79756000D02*
X112776000Y-76708000D01*
X146730000Y-86170000D02*
X146730000Y-87458000D01*
X118364000Y-87824000D02*
X118364000Y-85344000D01*
X146730000Y-87458000D02*
X140208000Y-93980000D01*
X118364000Y-85344000D02*
X112776000Y-79756000D01*
X112776000Y-76708000D02*
X113084000Y-76400000D01*
X113084000Y-76400000D02*
X115390000Y-76400000D01*
%TO.N,/VCO_OUT*%
X175090000Y-69490000D02*
X169910000Y-64310000D01*
X177870000Y-69490000D02*
X175090000Y-69490000D01*
X170230000Y-63990000D02*
X170230000Y-58260000D01*
X169910000Y-64310000D02*
X170230000Y-63990000D01*
D35*
X177930000Y-84540000D02*
X182076000Y-84540000D01*
X182076000Y-84540000D02*
X218366000Y-120830000D01*
X218366000Y-120830000D02*
X242620000Y-120830000D01*
D34*
%TO.N,Net-(Q2-C)*%
X155170000Y-86100000D02*
X155170000Y-84050000D01*
X172630000Y-72030000D02*
X177870000Y-72030000D01*
X155170000Y-84050000D02*
X169910000Y-69310000D01*
X169910000Y-69310000D02*
X167690000Y-67090000D01*
X167690000Y-67090000D02*
X167690000Y-58260000D01*
X169910000Y-69310000D02*
X172630000Y-72030000D01*
%TO.N,Net-(U2B--)*%
X187960000Y-83770000D02*
X187960000Y-87884000D01*
X196810000Y-85860000D02*
X191340000Y-80390000D01*
X196810000Y-88160000D02*
X196810000Y-85860000D01*
X191340000Y-80390000D02*
X187960000Y-83770000D01*
D35*
%TO.N,VPOS*%
X246454000Y-80264000D02*
X247720000Y-81530000D01*
X185490000Y-62710000D02*
X184040000Y-61260000D01*
X68000000Y-76764000D02*
X68056000Y-76708000D01*
X185490000Y-69490000D02*
X185490000Y-62710000D01*
X168334667Y-119825944D02*
X168434667Y-119925944D01*
X68000000Y-80000000D02*
X68000000Y-76764000D01*
X57488000Y-80482323D02*
X57488000Y-80348000D01*
X57488000Y-80482323D02*
X57517677Y-80482323D01*
X53395677Y-76255677D02*
X53395677Y-67896000D01*
X57517677Y-80482323D02*
X58000000Y-80000000D01*
X121340000Y-71320000D02*
X123410000Y-73390000D01*
X115390000Y-71320000D02*
X121340000Y-71320000D01*
X246380000Y-72644000D02*
X246380000Y-80264000D01*
X47780000Y-62086000D02*
X53320000Y-56546000D01*
X43290000Y-62086000D02*
X47244000Y-62086000D01*
X248306500Y-70717500D02*
X246380000Y-72644000D01*
X53395677Y-67896000D02*
X47585677Y-62086000D01*
X58000000Y-80000000D02*
X68000000Y-80000000D01*
X57488000Y-80348000D02*
X53395677Y-76255677D01*
X249497500Y-70717500D02*
X248306500Y-70717500D01*
X246380000Y-80264000D02*
X246454000Y-80264000D01*
X47244000Y-62086000D02*
X47780000Y-62086000D01*
X47585677Y-62086000D02*
X47244000Y-62086000D01*
X132763333Y-119825944D02*
X168334667Y-119825944D01*
%TO.N,VNEG*%
X68517677Y-85482323D02*
X72000000Y-82000000D01*
X272304000Y-82836000D02*
X275380000Y-79760000D01*
X226496000Y-66128000D02*
X226584000Y-66040000D01*
X162060000Y-87560000D02*
X169880000Y-79740000D01*
X229108000Y-59436000D02*
X231514000Y-57030000D01*
X227584000Y-66040000D02*
X228600000Y-66040000D01*
X40828000Y-82420000D02*
X36290500Y-86957500D01*
X231514000Y-57030000D02*
X243110000Y-57030000D01*
X266700000Y-84836000D02*
X252760000Y-98776000D01*
X36290500Y-86957500D02*
X36290500Y-96214049D01*
X67820000Y-55570000D02*
X68000000Y-55750000D01*
X228600000Y-66040000D02*
X229108000Y-66548000D01*
X101350000Y-82160000D02*
X104550000Y-82160000D01*
X230737500Y-68177500D02*
X229108000Y-66548000D01*
X271304000Y-84836000D02*
X266700000Y-84836000D01*
X169880000Y-79740000D02*
X175240000Y-79740000D01*
X59076000Y-60276000D02*
X59076000Y-57202000D01*
X39931500Y-98298000D02*
X44672323Y-98298000D01*
X275380000Y-79760000D02*
X275380000Y-75280000D01*
X242410000Y-93566000D02*
X247620000Y-98776000D01*
X44672323Y-98298000D02*
X57488000Y-85482323D01*
X59076000Y-57202000D02*
X60708000Y-55570000D01*
X36935451Y-96859000D02*
X38263498Y-96859000D01*
X148450000Y-79050000D02*
X156040000Y-71460000D01*
X68000000Y-55750000D02*
X68000000Y-50888000D01*
X236700000Y-81530000D02*
X242720000Y-81530000D01*
X229108000Y-66548000D02*
X229108000Y-59436000D01*
X57488000Y-85482323D02*
X68517677Y-85482323D01*
X252760000Y-98776000D02*
X247620000Y-98776000D01*
X39702498Y-98298000D02*
X39931500Y-98298000D01*
X108950000Y-80120000D02*
X107770000Y-78940000D01*
X104550000Y-82160000D02*
X107770000Y-78940000D01*
X241877500Y-73257500D02*
X241877500Y-80687500D01*
X108950000Y-85990000D02*
X108950000Y-80120000D01*
X110370000Y-54370000D02*
X110400000Y-54400000D01*
X242410000Y-81840000D02*
X242720000Y-81530000D01*
X241877500Y-68177500D02*
X230737500Y-68177500D01*
X156040000Y-71460000D02*
X156040000Y-51090000D01*
X110370000Y-49170000D02*
X110370000Y-54370000D01*
X247620000Y-98776000D02*
X247620000Y-120830000D01*
X72000000Y-59750000D02*
X68000000Y-55750000D01*
X162060000Y-90540000D02*
X162060000Y-87560000D01*
X272216000Y-84924000D02*
X272304000Y-84836000D01*
X38263498Y-96859000D02*
X39702498Y-98298000D01*
X242410000Y-87640000D02*
X242410000Y-81840000D01*
X242410000Y-87640000D02*
X242410000Y-93566000D01*
X241877500Y-80687500D02*
X242720000Y-81530000D01*
X72000000Y-82000000D02*
X72000000Y-59750000D01*
X60708000Y-55570000D02*
X67820000Y-55570000D01*
X175240000Y-79740000D02*
X177870000Y-77110000D01*
X36290500Y-96214049D02*
X36935451Y-96859000D01*
X68000000Y-50888000D02*
X68088000Y-50800000D01*
%TO.N,GND*%
X153900000Y-89384000D02*
X153924000Y-89408000D01*
X59896000Y-67896000D02*
X60042000Y-67750000D01*
X175760000Y-61260000D02*
X175750000Y-61250000D01*
X68000000Y-64540000D02*
X68056000Y-64484000D01*
X59076000Y-65956323D02*
X53395677Y-60276000D01*
X60042000Y-67750000D02*
X68000000Y-67750000D01*
X113950000Y-85990000D02*
X113950000Y-89950000D01*
X113950000Y-89950000D02*
X114000000Y-90000000D01*
X169880000Y-74740000D02*
X166760000Y-74740000D01*
X59076000Y-67896000D02*
X59896000Y-67896000D01*
X123410000Y-78390000D02*
X123410000Y-81590000D01*
X68000000Y-67750000D02*
X68000000Y-64540000D01*
X179040000Y-61260000D02*
X175760000Y-61260000D01*
X59076000Y-67896000D02*
X59076000Y-65956323D01*
X123410000Y-81590000D02*
X123400000Y-81600000D01*
X166760000Y-74740000D02*
X166750000Y-74750000D01*
X153900000Y-86100000D02*
X153900000Y-89384000D01*
D34*
%TO.N,Net-(C8-Pad2)*%
X221380000Y-71790000D02*
X221030000Y-71440000D01*
X221380000Y-79520000D02*
X221380000Y-71790000D01*
%TO.N,Net-(C8-Pad1)*%
X245120000Y-120830000D02*
X245120000Y-113260000D01*
X245120000Y-113260000D02*
X221380000Y-89520000D01*
%TO.N,Net-(C10-Pad1)*%
X241820000Y-65580000D02*
X241877500Y-65637500D01*
X233240000Y-65580000D02*
X241820000Y-65580000D01*
%TO.N,Net-(C10-Pad2)*%
X244440000Y-60580000D02*
X249497500Y-65637500D01*
X233240000Y-60580000D02*
X244440000Y-60580000D01*
%TO.N,Net-(U3-BYPASS)*%
X248110000Y-57030000D02*
X251086000Y-57030000D01*
X254000000Y-66040000D02*
X251862500Y-68177500D01*
X251086000Y-57030000D02*
X254000000Y-59944000D01*
X251862500Y-68177500D02*
X249497500Y-68177500D01*
X254000000Y-59944000D02*
X254000000Y-66040000D01*
D35*
%TO.N,Net-(C12-Pad2)*%
X251370000Y-86300000D02*
X250030000Y-87640000D01*
X256890000Y-86300000D02*
X251370000Y-86300000D01*
D36*
%TO.N,Net-(C12-Pad1)*%
X260070000Y-73440000D02*
X260070000Y-73686000D01*
X249497500Y-73257500D02*
X259887500Y-73257500D01*
X259887500Y-73257500D02*
X260070000Y-73440000D01*
X256890000Y-76866000D02*
X256890000Y-81300000D01*
X260070000Y-73686000D02*
X256890000Y-76866000D01*
D34*
%TO.N,Net-(D2-A)*%
X185490000Y-72030000D02*
X186000000Y-72030000D01*
X194190000Y-63640000D02*
X194290000Y-63740000D01*
X194190000Y-58510000D02*
X194190000Y-63640000D01*
X186000000Y-72030000D02*
X194290000Y-63740000D01*
%TO.N,Net-(D2-K)*%
X194080000Y-51000000D02*
X194190000Y-50890000D01*
X176780000Y-51000000D02*
X194080000Y-51000000D01*
%TO.N,Net-(Q1-B)*%
X133820000Y-72480000D02*
X133160000Y-73140000D01*
X140830000Y-79050000D02*
X140830000Y-72610000D01*
X142240000Y-88900000D02*
X140830000Y-87490000D01*
X140830000Y-87490000D02*
X140830000Y-79050000D01*
X140700000Y-68430000D02*
X140700000Y-72480000D01*
X143680000Y-88900000D02*
X142240000Y-88900000D01*
X140830000Y-72610000D02*
X140700000Y-72480000D01*
X145460000Y-87120000D02*
X143680000Y-88900000D01*
X140700000Y-72480000D02*
X133820000Y-72480000D01*
X145460000Y-86170000D02*
X145460000Y-87120000D01*
%TO.N,Net-(Q1-E)*%
X144190000Y-86170000D02*
X144190000Y-84246000D01*
X149352000Y-83312000D02*
X145796000Y-83312000D01*
X145796000Y-83312000D02*
X144190000Y-84918000D01*
X144190000Y-84918000D02*
X144190000Y-86170000D01*
X144190000Y-84246000D02*
X142240000Y-82296000D01*
X152140000Y-86100000D02*
X149352000Y-83312000D01*
X152630000Y-86100000D02*
X152140000Y-86100000D01*
%TO.N,Net-(Q3-G)*%
X168960000Y-58260000D02*
X168960000Y-51200000D01*
X168960000Y-51200000D02*
X169160000Y-51000000D01*
X169070000Y-51090000D02*
X169160000Y-51000000D01*
X163660000Y-51090000D02*
X169070000Y-51090000D01*
%TO.N,Net-(R1-Pad1)*%
X89430000Y-74070000D02*
X89430000Y-77640000D01*
X89430000Y-77640000D02*
X85380000Y-81690000D01*
%TO.N,Net-(U1A--)*%
X107770000Y-73860000D02*
X106554000Y-72644000D01*
X86806000Y-72644000D02*
X85380000Y-74070000D01*
X106554000Y-72644000D02*
X86806000Y-72644000D01*
X92132000Y-120425944D02*
X82296000Y-110589944D01*
X82296000Y-77154000D02*
X85380000Y-74070000D01*
X82296000Y-110589944D02*
X82296000Y-77154000D01*
%TO.N,Net-(U1A-+)*%
X97400000Y-66240000D02*
X97400000Y-67936000D01*
X97400000Y-67936000D02*
X100584000Y-71120000D01*
X89300000Y-58620000D02*
X93350000Y-58620000D01*
X95440000Y-68200000D02*
X97400000Y-66240000D01*
X91400000Y-67200000D02*
X92400000Y-68200000D01*
X93350000Y-58620000D02*
X91400000Y-60570000D01*
X91400000Y-60570000D02*
X91400000Y-67200000D01*
X92400000Y-68200000D02*
X95440000Y-68200000D01*
%TO.N,Net-(D1-A)*%
X112776000Y-46736000D02*
X113792000Y-47752000D01*
X108712000Y-46736000D02*
X112776000Y-46736000D01*
X113792000Y-47752000D02*
X113792000Y-54356000D01*
X107830000Y-49170000D02*
X107830000Y-47618000D01*
X111148000Y-57000000D02*
X108000000Y-57000000D01*
X107830000Y-47618000D02*
X108712000Y-46736000D01*
X113792000Y-54356000D02*
X111148000Y-57000000D01*
%TO.N,Net-(R9-Pad1)*%
X137668000Y-83312000D02*
X135116000Y-80760000D01*
X135116000Y-80760000D02*
X133160000Y-80760000D01*
X130263333Y-119825944D02*
X137668000Y-112421277D01*
X137668000Y-112421277D02*
X137668000Y-83312000D01*
%TO.N,Net-(R10-Pad1)*%
X170934667Y-119925944D02*
X159512000Y-108503277D01*
X159512000Y-108503277D02*
X159512000Y-83312000D01*
%TO.N,Net-(R11-Pad1)*%
X144270000Y-64380000D02*
X148320000Y-68430000D01*
X140700000Y-64380000D02*
X144270000Y-64380000D01*
%TO.N,Net-(U2B-+)*%
X196640000Y-77110000D02*
X185490000Y-77110000D01*
X201910000Y-71840000D02*
X196640000Y-77110000D01*
X185490000Y-84480000D02*
X185550000Y-84540000D01*
X185490000Y-77110000D02*
X185490000Y-84480000D01*
%TO.N,Net-(R22-Pad2)*%
X194290000Y-67790000D02*
X194290000Y-71840000D01*
%TO.N,Net-(R23-Pad1)*%
X201910000Y-63740000D02*
X201910000Y-67790000D01*
%TO.N,Net-(U3-+)*%
X229372500Y-70717500D02*
X228650000Y-71440000D01*
X229080000Y-71870000D02*
X228650000Y-71440000D01*
X241877500Y-70717500D02*
X229372500Y-70717500D01*
X229080000Y-81530000D02*
X229080000Y-71870000D01*
%TO.N,Net-(SW2-A)*%
X102749944Y-114808000D02*
X97132000Y-120425944D01*
X89916000Y-115824000D02*
X91948000Y-115824000D01*
X108000000Y-64620000D02*
X105260000Y-64620000D01*
X94632000Y-120425944D02*
X97132000Y-120425944D01*
X94632000Y-120425944D02*
X94632000Y-112885944D01*
X114860000Y-64550000D02*
X121040000Y-58370000D01*
X111252000Y-99568000D02*
X110236000Y-100584000D01*
X108000000Y-64620000D02*
X108608000Y-64620000D01*
X88392000Y-110236000D02*
X88392000Y-114300000D01*
X111252000Y-74802000D02*
X111252000Y-99568000D01*
X105260000Y-64620000D02*
X102108000Y-61468000D01*
X110236000Y-100584000D02*
X98044000Y-100584000D01*
X108678000Y-64550000D02*
X114860000Y-64550000D01*
X91948000Y-115824000D02*
X94462000Y-113310000D01*
X167640000Y-114808000D02*
X169609944Y-114808000D01*
X121040000Y-58370000D02*
X121040000Y-57708628D01*
X88392000Y-114300000D02*
X89916000Y-115824000D01*
X169609944Y-114808000D02*
X171712000Y-112705944D01*
X125476000Y-114808000D02*
X102749944Y-114808000D01*
X108608000Y-64620000D02*
X108678000Y-64550000D01*
X163576000Y-114808000D02*
X137160000Y-114808000D01*
X107770000Y-71320000D02*
X111252000Y-74802000D01*
X94462000Y-113310000D02*
X94462000Y-112715944D01*
X107770000Y-64850000D02*
X108000000Y-64620000D01*
X94632000Y-112885944D02*
X94462000Y-112715944D01*
X98044000Y-100584000D02*
X88392000Y-110236000D01*
X107770000Y-71320000D02*
X107770000Y-64850000D01*
%TO.N,Net-(R2-Pad1)*%
X93480000Y-74070000D02*
X93480000Y-77640000D01*
X93480000Y-77640000D02*
X89430000Y-81690000D01*
%TO.N,Net-(SW2-B)*%
X128524000Y-110236000D02*
X130592000Y-112304000D01*
X91922000Y-112715944D02*
X94401944Y-110236000D01*
X121040000Y-47708628D02*
X130592000Y-57260628D01*
X130592000Y-57260628D02*
X130592000Y-112385944D01*
X130592000Y-112304000D02*
X130592000Y-112385944D01*
X94401944Y-110236000D02*
X128524000Y-110236000D01*
%TO.N,Net-(D3-A)*%
X56604000Y-48926000D02*
X60708000Y-53030000D01*
X53320000Y-48926000D02*
X56604000Y-48926000D01*
%TO.N,Net-(SW3-C)*%
X128844888Y-64550000D02*
X128890000Y-64504888D01*
X133132000Y-112385944D02*
X131572000Y-110825944D01*
X131572000Y-110825944D02*
X131572000Y-69088000D01*
X122480000Y-64550000D02*
X128844888Y-64550000D01*
%TO.N,Net-(SW3-B)*%
X127763333Y-119632667D02*
X128052000Y-119344000D01*
X128052000Y-119344000D02*
X128052000Y-112385944D01*
X127763333Y-119825944D02*
X127763333Y-119632667D01*
X118000000Y-120000000D02*
X127589277Y-120000000D01*
X127589277Y-120000000D02*
X127763333Y-119825944D01*
D35*
%TO.N,/VPOS_Main*%
X46828000Y-82420000D02*
X46828000Y-68164000D01*
X46828000Y-90840000D02*
X46828000Y-82420000D01*
X39931500Y-95758000D02*
X41910000Y-95758000D01*
X41910000Y-95758000D02*
X46828000Y-90840000D01*
X46828000Y-68164000D02*
X43290000Y-64626000D01*
D36*
%TO.N,Net-(J3-Pin_2)*%
X264270000Y-72740000D02*
X263570000Y-73440000D01*
X275380000Y-72740000D02*
X264270000Y-72740000D01*
D34*
%TO.N,Net-(SW4-B)*%
X169172000Y-91048000D02*
X169680000Y-90540000D01*
X169172000Y-112705944D02*
X169172000Y-91048000D01*
X178570000Y-90690000D02*
X169830000Y-90690000D01*
X169830000Y-90690000D02*
X169680000Y-90540000D01*
%TD*%
%TA.AperFunction,Conductor*%
%TO.N,VNEG*%
G36*
X69307971Y-48262381D02*
G01*
X69386618Y-48278024D01*
X69431308Y-48296535D01*
X69487626Y-48334166D01*
X69493519Y-48340059D01*
X69498251Y-48342119D01*
X69521832Y-48368371D01*
X69559462Y-48424688D01*
X69577976Y-48469387D01*
X69593617Y-48548019D01*
X69596000Y-48572210D01*
X69596000Y-50995789D01*
X69593617Y-51019980D01*
X69577976Y-51098612D01*
X69574786Y-51106313D01*
X69574694Y-51111473D01*
X69559462Y-51143311D01*
X69521836Y-51199623D01*
X69487623Y-51233836D01*
X69431311Y-51271462D01*
X69386612Y-51289976D01*
X69307980Y-51305617D01*
X69283789Y-51308000D01*
X66860211Y-51308000D01*
X66836020Y-51305617D01*
X66757387Y-51289976D01*
X66712689Y-51271462D01*
X66656373Y-51233833D01*
X66622166Y-51199626D01*
X66584535Y-51143308D01*
X66566024Y-51098618D01*
X66550381Y-51019971D01*
X66548000Y-50995789D01*
X66548000Y-48572210D01*
X66550381Y-48548029D01*
X66566025Y-48469379D01*
X66584534Y-48424693D01*
X66622168Y-48368370D01*
X66656370Y-48334168D01*
X66712693Y-48296534D01*
X66757379Y-48278025D01*
X66836028Y-48262381D01*
X66860211Y-48260000D01*
X69283789Y-48260000D01*
X69307971Y-48262381D01*
G37*
%TD.AperFunction*%
%TD*%
%TA.AperFunction,Conductor*%
%TO.N,VNEG*%
G36*
X227803971Y-63502381D02*
G01*
X227882618Y-63518024D01*
X227927308Y-63536535D01*
X227983626Y-63574166D01*
X227989519Y-63580059D01*
X227994251Y-63582119D01*
X228017832Y-63608371D01*
X228055462Y-63664688D01*
X228073976Y-63709387D01*
X228089617Y-63788019D01*
X228092000Y-63812210D01*
X228092000Y-66235789D01*
X228089617Y-66259980D01*
X228073976Y-66338612D01*
X228070786Y-66346313D01*
X228070694Y-66351473D01*
X228055462Y-66383311D01*
X228017836Y-66439623D01*
X227983623Y-66473836D01*
X227927311Y-66511462D01*
X227882612Y-66529976D01*
X227803980Y-66545617D01*
X227779789Y-66548000D01*
X225356211Y-66548000D01*
X225332020Y-66545617D01*
X225253387Y-66529976D01*
X225208689Y-66511462D01*
X225152373Y-66473833D01*
X225118166Y-66439626D01*
X225080535Y-66383308D01*
X225062024Y-66338618D01*
X225046381Y-66259971D01*
X225044000Y-66235789D01*
X225044000Y-63812210D01*
X225046381Y-63788029D01*
X225062025Y-63709379D01*
X225080534Y-63664693D01*
X225118168Y-63608370D01*
X225152370Y-63574168D01*
X225208693Y-63536534D01*
X225253379Y-63518025D01*
X225332028Y-63502381D01*
X225356211Y-63500000D01*
X227779789Y-63500000D01*
X227803971Y-63502381D01*
G37*
%TD.AperFunction*%
%TD*%
%TA.AperFunction,Conductor*%
%TO.N,GND*%
G36*
X69307971Y-61978381D02*
G01*
X69386618Y-61994024D01*
X69431308Y-62012535D01*
X69487626Y-62050166D01*
X69493519Y-62056059D01*
X69498251Y-62058119D01*
X69521832Y-62084371D01*
X69559462Y-62140688D01*
X69577976Y-62185387D01*
X69593617Y-62264019D01*
X69596000Y-62288210D01*
X69596000Y-64711789D01*
X69593617Y-64735980D01*
X69577976Y-64814612D01*
X69574786Y-64822313D01*
X69574694Y-64827473D01*
X69559462Y-64859311D01*
X69521836Y-64915623D01*
X69487623Y-64949836D01*
X69431311Y-64987462D01*
X69386612Y-65005976D01*
X69307980Y-65021617D01*
X69283789Y-65024000D01*
X66860211Y-65024000D01*
X66836020Y-65021617D01*
X66757387Y-65005976D01*
X66712689Y-64987462D01*
X66656373Y-64949833D01*
X66622166Y-64915626D01*
X66584535Y-64859308D01*
X66566024Y-64814618D01*
X66550381Y-64735971D01*
X66548000Y-64711789D01*
X66548000Y-62288210D01*
X66550381Y-62264029D01*
X66566025Y-62185379D01*
X66584534Y-62140693D01*
X66622168Y-62084370D01*
X66656370Y-62050168D01*
X66712693Y-62012534D01*
X66757379Y-61994025D01*
X66836028Y-61978381D01*
X66860211Y-61976000D01*
X69283789Y-61976000D01*
X69307971Y-61978381D01*
G37*
%TD.AperFunction*%
%TD*%
%TA.AperFunction,Conductor*%
%TO.N,VPOS*%
G36*
X69307971Y-74170381D02*
G01*
X69386618Y-74186024D01*
X69431308Y-74204535D01*
X69487626Y-74242166D01*
X69493519Y-74248059D01*
X69498251Y-74250119D01*
X69521832Y-74276371D01*
X69559462Y-74332688D01*
X69577976Y-74377387D01*
X69593617Y-74456019D01*
X69596000Y-74480210D01*
X69596000Y-76903789D01*
X69593617Y-76927980D01*
X69577976Y-77006612D01*
X69574786Y-77014313D01*
X69574694Y-77019473D01*
X69559462Y-77051311D01*
X69521836Y-77107623D01*
X69487623Y-77141836D01*
X69431311Y-77179462D01*
X69386612Y-77197976D01*
X69307980Y-77213617D01*
X69283789Y-77216000D01*
X66860211Y-77216000D01*
X66836020Y-77213617D01*
X66757387Y-77197976D01*
X66712689Y-77179462D01*
X66656373Y-77141833D01*
X66622166Y-77107626D01*
X66584535Y-77051308D01*
X66566024Y-77006618D01*
X66550381Y-76927971D01*
X66548000Y-76903789D01*
X66548000Y-74480210D01*
X66550381Y-74456029D01*
X66566025Y-74377379D01*
X66584534Y-74332693D01*
X66622168Y-74276370D01*
X66656370Y-74242168D01*
X66712693Y-74204534D01*
X66757379Y-74186025D01*
X66836028Y-74170381D01*
X66860211Y-74168000D01*
X69283789Y-74168000D01*
X69307971Y-74170381D01*
G37*
%TD.AperFunction*%
%TD*%
%TA.AperFunction,Conductor*%
%TO.N,GND*%
G36*
X155159971Y-88902381D02*
G01*
X155238618Y-88918024D01*
X155283308Y-88936535D01*
X155339626Y-88974166D01*
X155345519Y-88980059D01*
X155350251Y-88982119D01*
X155373832Y-89008371D01*
X155411462Y-89064688D01*
X155429976Y-89109387D01*
X155445617Y-89188019D01*
X155448000Y-89212210D01*
X155448000Y-90619789D01*
X155445617Y-90643980D01*
X155429976Y-90722612D01*
X155426786Y-90730313D01*
X155426694Y-90735473D01*
X155411462Y-90767311D01*
X155373836Y-90823623D01*
X155339623Y-90857836D01*
X155283311Y-90895462D01*
X155238612Y-90913976D01*
X155159980Y-90929617D01*
X155135789Y-90932000D01*
X153728211Y-90932000D01*
X153704020Y-90929617D01*
X153625387Y-90913976D01*
X153580689Y-90895462D01*
X153524373Y-90857833D01*
X153490166Y-90823626D01*
X153452535Y-90767308D01*
X153434024Y-90722618D01*
X153418381Y-90643971D01*
X153416000Y-90619789D01*
X153416000Y-89212210D01*
X153418381Y-89188029D01*
X153434025Y-89109379D01*
X153452534Y-89064693D01*
X153490168Y-89008370D01*
X153524370Y-88974168D01*
X153580693Y-88936534D01*
X153625379Y-88918025D01*
X153704028Y-88902381D01*
X153728211Y-88900000D01*
X155135789Y-88900000D01*
X155159971Y-88902381D01*
G37*
%TD.AperFunction*%
%TD*%
%TA.AperFunction,Conductor*%
%TO.N,VNEG*%
G36*
X273523971Y-82298381D02*
G01*
X273602618Y-82314024D01*
X273647308Y-82332535D01*
X273703626Y-82370166D01*
X273709519Y-82376059D01*
X273714251Y-82378119D01*
X273737832Y-82404371D01*
X273775462Y-82460688D01*
X273793976Y-82505387D01*
X273809617Y-82584019D01*
X273812000Y-82608210D01*
X273812000Y-85031789D01*
X273809617Y-85055980D01*
X273793976Y-85134612D01*
X273790786Y-85142313D01*
X273790694Y-85147473D01*
X273775462Y-85179311D01*
X273737836Y-85235623D01*
X273703623Y-85269836D01*
X273647311Y-85307462D01*
X273602612Y-85325976D01*
X273523980Y-85341617D01*
X273499789Y-85344000D01*
X271076211Y-85344000D01*
X271052020Y-85341617D01*
X270973387Y-85325976D01*
X270928689Y-85307462D01*
X270872373Y-85269833D01*
X270838166Y-85235626D01*
X270800535Y-85179308D01*
X270782024Y-85134618D01*
X270766381Y-85055971D01*
X270764000Y-85031789D01*
X270764000Y-82608210D01*
X270766381Y-82584029D01*
X270782025Y-82505379D01*
X270800534Y-82460693D01*
X270838168Y-82404370D01*
X270872370Y-82370168D01*
X270928693Y-82332534D01*
X270973379Y-82314025D01*
X271052028Y-82298381D01*
X271076211Y-82296000D01*
X273499789Y-82296000D01*
X273523971Y-82298381D01*
G37*
%TD.AperFunction*%
%TD*%
M02*
